<svg width="55" height="15" viewBox="0 0 55 15" fill="none" xmlns="http://www.w3.org/2000/svg">
<rect x="41.667" y="13.3335" width="1.66667" height="1.66667" fill="white"/>
<rect x="43.334" y="13.3335" width="1.66667" height="1.66667" fill="white"/>
<rect x="45.001" y="13.3335" width="1.66667" height="1.66667" fill="white"/>
<rect x="46.667" y="13.3335" width="1.66667" height="1.66667" fill="white"/>
<rect x="48.334" y="13.3335" width="1.66667" height="1.66667" fill="white"/>
<rect x="50.001" y="13.3335" width="1.66667" height="1.66667" fill="white"/>
<rect x="51.667" y="13.3335" width="1.66667" height="1.66667" fill="white"/>
<rect x="53.334" y="13.3335" width="1.66667" height="1.66667" fill="white"/>
<rect x="11.667" y="5.00024" width="1.66667" height="1.66667" fill="#C8E0FF"/>
<rect x="6.66699" y="8.3335" width="1.66667" height="1.66667" fill="#C8E0FF"/>
<rect x="5.00098" y="8.3335" width="1.66667" height="1.66667" fill="#C8E0FF"/>
<rect x="5.00098" y="5.00024" width="1.66667" height="1.66667" fill="#3E4751"/>
<rect x="6.66699" y="5.00024" width="1.66667" height="1.66667" fill="#3E4751"/>
<rect x="8.33398" y="5.00024" width="1.66667" height="1.66667" fill="#2C333A"/>
<rect x="10.001" y="5.00024" width="1.66667" height="1.66667" fill="#2C333A"/>
<rect x="10.001" y="6.66675" width="1.66667" height="1.66667" fill="#2C333A"/>
<rect x="11.667" y="6.66675" width="1.66667" height="1.66667" fill="#2C333A"/>
<rect x="11.667" y="8.3335" width="1.66667" height="1.66667" fill="#2C333A"/>
<rect x="10.001" y="8.3335" width="1.66667" height="1.66667" fill="#2C333A"/>
<rect x="10.001" y="10.0002" width="1.66667" height="1.66667" fill="#2C333A"/>
<rect x="11.667" y="10.0002" width="1.66667" height="1.66667" fill="#2C333A"/>
<rect x="10.001" y="11.6667" width="1.66667" height="1.66667" fill="#2C333A"/>
<rect x="11.667" y="11.6667" width="1.66667" height="1.66667" fill="#2C333A"/>
<rect x="10.001" y="13.3335" width="1.66667" height="1.66667" fill="#2C333A"/>
<rect x="8.33398" y="13.3335" width="1.66667" height="1.66667" fill="#2C333A"/>
<rect x="26.667" y="3.3335" width="1.66667" height="1.66667" fill="#2C333A"/>
<rect x="35.001" y="5.00024" width="1.66667" height="1.66667" fill="#2C333A"/>
<rect x="36.667" y="5.00024" width="1.66667" height="1.66667" fill="#2C333A"/>
<rect x="36.667" y="6.66675" width="1.66667" height="1.66667" fill="#2C333A"/>
<rect x="38.334" y="6.66675" width="1.66667" height="1.66667" fill="#2C333A"/>
<rect x="36.667" y="8.3335" width="1.66667" height="1.66667" fill="#2C333A"/>
<rect x="46.667" y="5.00024" width="1.66667" height="1.66667" fill="#2C333A"/>
<rect x="48.334" y="5.00024" width="1.66667" height="1.66667" fill="#2C333A"/>
<rect x="48.334" y="6.66675" width="1.66667" height="1.66667" fill="#2C333A"/>
<rect x="50.001" y="6.66675" width="1.66667" height="1.66667" fill="#2C333A"/>
<rect x="50.001" y="8.3335" width="1.66667" height="1.66667" fill="#2C333A"/>
<rect x="50.001" y="10.0002" width="1.66667" height="1.66667" fill="#2C333A"/>
<rect x="38.334" y="8.3335" width="1.66667" height="1.66667" fill="#2C333A"/>
<rect x="36.667" y="10.0002" width="1.66667" height="1.66667" fill="#2C333A"/>
<rect x="36.667" y="11.6667" width="1.66667" height="1.66667" fill="#2C333A"/>
<rect x="36.667" y="13.3335" width="1.66667" height="1.66667" fill="#2C333A"/>
<rect x="35.001" y="13.3335" width="1.66667" height="1.66667" fill="#2C333A"/>
<rect x="5.00098" y="6.66675" width="1.66667" height="1.66667" fill="#3E4751"/>
<rect x="6.66699" y="6.66675" width="1.66667" height="1.66667" fill="#3E4751"/>
<rect x="31.667" y="5.00024" width="1.66667" height="1.66667" fill="#3E4751"/>
<rect x="33.334" y="5.00024" width="1.66667" height="1.66667" fill="#3E4751"/>
<rect x="30.001" y="6.66675" width="1.66667" height="1.66667" fill="#3E4751"/>
<rect x="31.667" y="6.66675" width="1.66667" height="1.66667" fill="#3E4751"/>
<rect x="33.334" y="6.66675" width="1.66667" height="1.66667" fill="#3E4751"/>
<rect x="35.001" y="6.66675" width="1.66667" height="1.66667" fill="#3E4751"/>
<rect x="35.001" y="8.3335" width="1.66667" height="1.66667" fill="#3E4751"/>
<rect x="35.001" y="10.0002" width="1.66667" height="1.66667" fill="#3E4751"/>
<rect x="35.001" y="11.6667" width="1.66667" height="1.66667" fill="#3E4751"/>
<rect x="33.334" y="13.3335" width="1.66667" height="1.66667" fill="#3E4751"/>
<rect x="33.334" y="11.6667" width="1.66667" height="1.66667" fill="#3E4751"/>
<rect x="31.667" y="11.6667" width="1.66667" height="1.66667" fill="#3E4751"/>
<rect x="31.667" y="13.3335" width="1.66667" height="1.66667" fill="#3E4751"/>
<rect x="30.001" y="11.6667" width="1.66667" height="1.66667" fill="#3E4751"/>
<rect x="30.001" y="10.0002" width="1.66667" height="1.66667" fill="#3E4751"/>
<rect x="30.001" y="8.3335" width="1.66667" height="1.66667" fill="#3E4751"/>
<rect x="30.001" y="6.66675" width="1.66667" height="1.66667" fill="#3E4751"/>
<rect x="3.33398" y="6.66675" width="1.66667" height="1.66667" fill="#3E4751"/>
<rect x="3.33398" y="8.3335" width="1.66667" height="1.66667" fill="#3E4751"/>
<rect x="3.33398" y="10.0002" width="1.66667" height="1.66667" fill="#3E4751"/>
<rect x="3.33398" y="11.6667" width="1.66667" height="1.66667" fill="#3E4751"/>
<rect x="5.00098" y="11.6667" width="1.66667" height="1.66667" fill="#3E4751"/>
<rect x="5.00098" y="13.3335" width="1.66667" height="1.66667" fill="#3E4751"/>
<rect x="6.66699" y="13.3335" width="1.66667" height="1.66667" fill="#3E4751"/>
<rect x="6.66699" y="11.6667" width="1.66667" height="1.66667" fill="#3E4751"/>
<rect x="8.33398" y="11.6667" width="1.66667" height="1.66667" fill="#3E4751"/>
<rect x="8.33398" y="10.0002" width="1.66667" height="1.66667" fill="#3E4751"/>
<rect x="8.33398" y="8.3335" width="1.66667" height="1.66667" fill="#3E4751"/>
<rect x="8.33398" y="6.66675" width="1.66667" height="1.66667" fill="#3E4751"/>
<rect x="5.00098" y="10.0002" width="1.66667" height="1.66667" fill="#C8E0FF"/>
<rect x="6.66699" y="10.0002" width="1.66667" height="1.66667" fill="#C8E0FF"/>
<rect x="31.667" y="8.3335" width="1.66667" height="1.66667" fill="#C8E0FF"/>
<rect x="33.334" y="8.3335" width="1.66667" height="1.66667" fill="#C8E0FF"/>
<rect x="33.334" y="10.0002" width="1.66667" height="1.66667" fill="#C8E0FF"/>
<rect x="31.667" y="10.0002" width="1.66667" height="1.66667" fill="#C8E0FF"/>
<rect x="38.334" y="13.3335" width="1.66667" height="1.66667" fill="#C8E0FF"/>
<rect x="40.001" y="13.3335" width="1.66667" height="1.66667" fill="#C8E0FF"/>
<rect x="13.334" y="5.00024" width="1.66667" height="1.66667" fill="#C8E0FF"/>
<rect x="15.001" y="5.00024" width="1.66667" height="1.66667" fill="#C8E0FF"/>
<rect x="16.667" y="5.00024" width="1.66667" height="1.66667" fill="#C8E0FF"/>
<rect x="18.334" y="5.00024" width="1.66667" height="1.66667" fill="#C8E0FF"/>
<rect x="20.001" y="5.00024" width="1.66667" height="1.66667" fill="#C8E0FF"/>
<rect x="21.667" y="5.00024" width="1.66667" height="1.66667" fill="white"/>
<rect x="23.334" y="5.00024" width="1.66667" height="1.66667" fill="white"/>
<rect x="25.001" y="5.00024" width="1.66667" height="1.66667" fill="white"/>
<rect x="13.334" y="8.3335" width="1.66667" height="1.66667" fill="white"/>
<rect x="13.334" y="10.0002" width="1.66667" height="1.66667" fill="white"/>
<rect x="13.334" y="11.6667" width="1.66667" height="1.66667" fill="white"/>
<rect x="15.001" y="8.3335" width="1.66667" height="1.66667" fill="#C8E0FF"/>
<rect x="15.001" y="10.0002" width="1.66667" height="1.66667" fill="#C8E0FF"/>
<rect x="16.667" y="10.0002" width="1.66667" height="1.66667" fill="#C8E0FF"/>
<rect x="18.334" y="10.0002" width="1.66667" height="1.66667" fill="#C8E0FF"/>
<rect x="15.001" y="11.6667" width="1.66667" height="1.66667" fill="#C8E0FF"/>
<rect x="16.667" y="11.6667" width="1.66667" height="1.66667" fill="#C8E0FF"/>
<rect x="18.334" y="11.6667" width="1.66667" height="1.66667" fill="#C8E0FF"/>
<rect x="20.001" y="11.6667" width="1.66667" height="1.66667" fill="#C8E0FF"/>
<rect x="21.667" y="11.6667" width="1.66667" height="1.66667" fill="#C8E0FF"/>
<rect x="15.001" y="13.3335" width="1.66667" height="1.66667" fill="#C8E0FF"/>
<rect x="16.667" y="13.3335" width="1.66667" height="1.66667" fill="#C8E0FF"/>
<rect x="18.334" y="13.3335" width="1.66667" height="1.66667" fill="#C8E0FF"/>
<rect x="20.001" y="13.3335" width="1.66667" height="1.66667" fill="#C8E0FF"/>
<rect x="21.667" y="13.3335" width="1.66667" height="1.66667" fill="#C8E0FF"/>
<rect x="23.334" y="13.3335" width="1.66667" height="1.66667" fill="#C8E0FF"/>
<rect x="25.001" y="13.3335" width="1.66667" height="1.66667" fill="#C8E0FF"/>
<rect x="13.333" width="1.66667" height="1.66667" fill="#F55C5C"/>
<rect x="15" width="1.66667" height="1.66667" fill="#F55C5C"/>
<rect x="16.667" width="1.66667" height="1.66667" fill="#F55C5C"/>
<rect x="18.333" width="1.66667" height="1.66667" fill="#F55C5C"/>
<rect x="16.667" y="1.66675" width="1.66667" height="1.66667" fill="#F55C5C"/>
<rect x="15" y="1.66675" width="1.66667" height="1.66667" fill="#F55C5C"/>
<rect x="13.333" y="1.66675" width="1.66667" height="1.66667" fill="#F55C5C"/>
<rect x="11.667" y="1.66675" width="1.66667" height="1.66667" fill="#F55C5C"/>
<rect x="10" y="1.66675" width="1.66667" height="1.66667" fill="#F55C5C"/>
<rect x="8.33301" y="3.33325" width="1.66667" height="1.66667" fill="#F55C5C"/>
<rect x="3.33301" y="3.33325" width="1.66667" height="1.66667" fill="#F55C5C"/>
<rect x="3.33301" y="5" width="1.66667" height="1.66667" fill="#F55C5C"/>
<rect x="1.66699" y="5" width="1.66667" height="1.66667" fill="#F55C5C"/>
<rect x="1.66699" y="3.33325" width="1.66667" height="1.66667" fill="#F55C5C"/>
<rect x="1.66699" y="1.66675" width="1.66667" height="1.66667" fill="#F55C5C"/>
<rect y="1.66675" width="1.66667" height="1.66667" fill="#F55C5C"/>
<rect y="3.33325" width="1.66667" height="1.66667" fill="#F55C5C"/>
<rect y="5" width="1.66667" height="1.66667" fill="#F55C5C"/>
<rect y="6.66675" width="1.66667" height="1.66667" fill="#F55C5C"/>
<rect x="1.66699" y="6.66675" width="1.66667" height="1.66667" fill="#F55C5C"/>
<rect x="10" y="3.33325" width="1.66667" height="1.66667" fill="#F55C5C"/>
<rect x="11.667" y="3.33325" width="1.66667" height="1.66667" fill="#F55C5C"/>
<rect x="13.333" y="3.33325" width="1.66667" height="1.66667" fill="#F55C5C"/>
<rect x="15" y="3.33325" width="1.66667" height="1.66667" fill="#F55C5C"/>
<rect x="16.667" y="3.33325" width="1.66667" height="1.66667" fill="#F55C5C"/>
<rect x="20" y="1.66675" width="1.66667" height="1.66667" fill="#F55C5C"/>
<rect x="21.667" y="1.66675" width="1.66667" height="1.66667" fill="#F55C5C"/>
<rect x="21.667" y="3.33325" width="1.66667" height="1.66667" fill="#F55C5C"/>
<rect x="20" y="3.33325" width="1.66667" height="1.66667" fill="#F55C5C"/>
<rect x="13.333" y="6.66675" width="1.66667" height="1.66667" fill="#F55C5C"/>
<rect x="15" y="6.66675" width="1.66667" height="1.66667" fill="#F55C5C"/>
<rect x="16.667" y="6.66675" width="1.66667" height="1.66667" fill="#F55C5C"/>
<rect x="18.333" y="6.66675" width="1.66667" height="1.66667" fill="#F55C5C"/>
<rect x="20" y="6.66675" width="1.66667" height="1.66667" fill="#F55C5C"/>
<rect x="21.667" y="6.66675" width="1.66667" height="1.66667" fill="#F55C5C"/>
<rect x="23.333" y="6.66675" width="1.66667" height="1.66667" fill="#F55C5C"/>
<rect x="25" y="6.66675" width="1.66667" height="1.66667" fill="#F55C5C"/>
<rect x="26.667" y="6.66675" width="1.66667" height="1.66667" fill="#F55C5C"/>
<rect x="28.333" y="6.66675" width="1.66667" height="1.66667" fill="#F55C5C"/>
<rect x="28.333" y="3.33325" width="1.66667" height="1.66667" fill="#F55C5C"/>
<rect x="30" y="3.33325" width="1.66667" height="1.66667" fill="#F55C5C"/>
<rect x="35" y="3.33325" width="1.66667" height="1.66667" fill="#F55C5C"/>
<rect x="36.667" y="3.33325" width="1.66667" height="1.66667" fill="#F55C5C"/>
<rect x="38.333" y="5" width="1.66667" height="1.66667" fill="#F55C5C"/>
<rect x="40" y="6.66675" width="1.66667" height="1.66667" fill="#F55C5C"/>
<rect x="40" y="8.33325" width="1.66667" height="1.66667" fill="#F55C5C"/>
<rect x="40" y="10" width="1.66667" height="1.66667" fill="#F55C5C"/>
<rect x="41.667" y="10" width="1.66667" height="1.66667" fill="#F55C5C"/>
<rect x="41.667" y="8.33325" width="1.66667" height="1.66667" fill="#F55C5C"/>
<rect x="51.667" y="10" width="1.66667" height="1.66667" fill="#F55C5C"/>
<rect x="25" y="8.33325" width="1.66667" height="1.66667" fill="#F55C5C"/>
<rect x="23.333" y="8.33325" width="1.66667" height="1.66667" fill="#F55C5C"/>
<rect x="21.667" y="8.33325" width="1.66667" height="1.66667" fill="#F55C5C"/>
<rect x="20" y="8.33325" width="1.66667" height="1.66667" fill="#F55C5C"/>
<rect x="18.333" y="8.33325" width="1.66667" height="1.66667" fill="#F55C5C"/>
<rect x="16.667" y="8.33325" width="1.66667" height="1.66667" fill="#F55C5C"/>
<rect x="20" y="10" width="1.66667" height="1.66667" fill="#F55C5C"/>
<rect x="21.667" y="10" width="1.66667" height="1.66667" fill="#F55C5C"/>
<rect x="23.333" y="10" width="1.66667" height="1.66667" fill="#F55C5C"/>
<rect x="25" y="10" width="1.66667" height="1.66667" fill="#F55C5C"/>
<rect x="25" y="11.6667" width="1.66667" height="1.66667" fill="#F55C5C"/>
<rect x="23.333" y="11.6667" width="1.66667" height="1.66667" fill="#F55C5C"/>
<rect x="3.33301" y="1.66675" width="1.66667" height="1.66667" fill="#F55C5C"/>
<rect x="5" y="1.66675" width="1.66667" height="1.66667" fill="#F55C5C"/>
<rect x="6.66699" y="1.66675" width="1.66667" height="1.66667" fill="#F55C5C"/>
<rect x="8.33301" y="1.66675" width="1.66667" height="1.66667" fill="#F55C5C"/>
<rect x="6.66699" y="3.33325" width="1.66667" height="1.66667" fill="#F55C5C"/>
<rect x="5" y="3.33325" width="1.66667" height="1.66667" fill="#F55C5C"/>
<rect x="18.333" y="3.33325" width="1.66667" height="1.66667" fill="#F55C5C"/>
<rect x="18.333" y="1.66675" width="1.66667" height="1.66667" fill="#F55C5C"/>
<rect x="20" width="1.66667" height="1.66667" fill="#F55C5C"/>
<rect x="21.667" width="1.66667" height="1.66667" fill="#F55C5C"/>
<rect x="23.333" y="1.66675" width="1.66667" height="1.66667" fill="#F55C5C"/>
<rect x="23.333" y="3.33325" width="1.66667" height="1.66667" fill="#F55C5C"/>
<rect x="31.667" y="3.33325" width="1.66667" height="1.66667" fill="#F55C5C"/>
<rect x="30" y="5" width="1.66667" height="1.66667" fill="#F55C5C"/>
<rect x="28.333" y="5" width="1.66667" height="1.66667" fill="#F55C5C"/>
<rect x="26.667" y="5" width="1.66667" height="1.66667" fill="#F55C5C"/>
<rect x="28.333" y="8.33325" width="1.66667" height="1.66667" fill="#F55C5C"/>
<rect x="26.667" y="8.33325" width="1.66667" height="1.66667" fill="#F55C5C"/>
<rect x="26.667" y="10" width="1.66667" height="1.66667" fill="#F55C5C"/>
<rect x="28.333" y="10" width="1.66667" height="1.66667" fill="#F55C5C"/>
<rect x="28.333" y="11.6667" width="1.66667" height="1.66667" fill="#F55C5C"/>
<rect x="26.667" y="11.6667" width="1.66667" height="1.66667" fill="#F55C5C"/>
<rect x="38.333" y="3.33325" width="1.66667" height="1.66667" fill="#F55C5C"/>
<rect x="40" y="5" width="1.66667" height="1.66667" fill="#F55C5C"/>
<rect x="41.667" y="5" width="1.66667" height="1.66667" fill="#F55C5C"/>
<rect x="43.333" y="5" width="1.66667" height="1.66667" fill="#F55C5C"/>
<rect x="45" y="5" width="1.66667" height="1.66667" fill="#F55C5C"/>
<rect x="41.667" y="6.66675" width="1.66667" height="1.66667" fill="#F55C5C"/>
<rect x="43.333" y="6.66675" width="1.66667" height="1.66667" fill="#F55C5C"/>
<rect x="45" y="6.66675" width="1.66667" height="1.66667" fill="#F55C5C"/>
<rect x="46.667" y="6.66675" width="1.66667" height="1.66667" fill="#F55C5C"/>
<rect x="43.333" y="8.33325" width="1.66667" height="1.66667" fill="#F55C5C"/>
<rect x="45" y="8.33325" width="1.66667" height="1.66667" fill="#F55C5C"/>
<rect x="46.667" y="8.33325" width="1.66667" height="1.66667" fill="#F55C5C"/>
<rect x="48.333" y="8.33325" width="1.66667" height="1.66667" fill="#F55C5C"/>
<rect x="43.333" y="10" width="1.66667" height="1.66667" fill="#F55C5C"/>
<rect x="45" y="10" width="1.66667" height="1.66667" fill="#F55C5C"/>
<rect x="46.667" y="10" width="1.66667" height="1.66667" fill="#F55C5C"/>
<rect x="48.333" y="10" width="1.66667" height="1.66667" fill="#F55C5C"/>
<rect x="38.333" y="10" width="1.66667" height="1.66667" fill="#F55C5C"/>
<rect x="38.333" y="11.6667" width="1.66667" height="1.66667" fill="#F55C5C"/>
<rect x="40" y="11.6667" width="1.66667" height="1.66667" fill="#F55C5C"/>
<rect x="41.667" y="11.6667" width="1.66667" height="1.66667" fill="#F55C5C"/>
<rect x="43.333" y="11.6667" width="1.66667" height="1.66667" fill="#F55C5C"/>
<rect x="45" y="11.6667" width="1.66667" height="1.66667" fill="#F55C5C"/>
<rect x="46.667" y="11.6667" width="1.66667" height="1.66667" fill="#F55C5C"/>
<rect x="48.333" y="11.6667" width="1.66667" height="1.66667" fill="#F55C5C"/>
<rect x="50" y="11.6667" width="1.66667" height="1.66667" fill="#F55C5C"/>
<rect x="51.667" y="11.6667" width="1.66667" height="1.66667" fill="#F55C5C"/>
<rect x="53.333" y="11.6667" width="1.66667" height="1.66667" fill="#F55C5C"/>
<rect x="53.333" y="10" width="1.66667" height="1.66667" fill="#F55C5C"/>
<rect x="13.333" width="1.66667" height="1.66667" fill="black" fill-opacity="0.25"/>
<rect x="15" width="1.66667" height="1.66667" fill="black" fill-opacity="0.25"/>
<rect x="16.667" width="1.66667" height="1.66667" fill="black" fill-opacity="0.25"/>
<rect x="18.333" width="1.66667" height="1.66667" fill="black" fill-opacity="0.25"/>
<rect x="16.667" y="1.66675" width="1.66667" height="1.66667" fill="black" fill-opacity="0.25"/>
<rect x="15" y="1.66675" width="1.66667" height="1.66667" fill="black" fill-opacity="0.25"/>
<rect x="13.333" y="1.66675" width="1.66667" height="1.66667" fill="black" fill-opacity="0.25"/>
<rect x="11.667" y="1.66675" width="1.66667" height="1.66667" fill="black" fill-opacity="0.25"/>
<rect x="10" y="1.66675" width="1.66667" height="1.66667" fill="black" fill-opacity="0.25"/>
<rect x="8.33301" y="3.33325" width="1.66667" height="1.66667" fill="black" fill-opacity="0.25"/>
<rect x="3.33301" y="3.33325" width="1.66667" height="1.66667" fill="black" fill-opacity="0.25"/>
<rect x="3.33301" y="5" width="1.66667" height="1.66667" fill="black" fill-opacity="0.25"/>
<rect x="1.66699" y="5" width="1.66667" height="1.66667" fill="black" fill-opacity="0.25"/>
<rect x="1.66699" y="3.33325" width="1.66667" height="1.66667" fill="black" fill-opacity="0.25"/>
<rect x="1.66699" y="1.66675" width="1.66667" height="1.66667" fill="black" fill-opacity="0.25"/>
<rect y="1.66675" width="1.66667" height="1.66667" fill="black" fill-opacity="0.25"/>
<rect y="3.33325" width="1.66667" height="1.66667" fill="black" fill-opacity="0.25"/>
<rect y="5" width="1.66667" height="1.66667" fill="black" fill-opacity="0.25"/>
<rect y="6.66675" width="1.66667" height="1.66667" fill="black" fill-opacity="0.25"/>
<rect x="1.66699" y="6.66675" width="1.66667" height="1.66667" fill="black" fill-opacity="0.25"/>
<rect x="10" y="3.33325" width="1.66667" height="1.66667" fill="black" fill-opacity="0.25"/>
<rect x="11.667" y="3.33325" width="1.66667" height="1.66667" fill="black" fill-opacity="0.25"/>
<rect x="13.333" y="3.33325" width="1.66667" height="1.66667" fill="black" fill-opacity="0.25"/>
<rect x="15" y="3.33325" width="1.66667" height="1.66667" fill="black" fill-opacity="0.25"/>
<rect x="16.667" y="3.33325" width="1.66667" height="1.66667" fill="black" fill-opacity="0.25"/>
<rect x="20" y="1.66675" width="1.66667" height="1.66667" fill="black" fill-opacity="0.25"/>
<rect x="21.667" y="1.66675" width="1.66667" height="1.66667" fill="black" fill-opacity="0.25"/>
<rect x="21.667" y="3.33325" width="1.66667" height="1.66667" fill="black" fill-opacity="0.25"/>
<rect x="20" y="3.33325" width="1.66667" height="1.66667" fill="black" fill-opacity="0.25"/>
<rect x="13.333" y="6.66675" width="1.66667" height="1.66667" fill="black" fill-opacity="0.25"/>
<rect x="15" y="6.66675" width="1.66667" height="1.66667" fill="black" fill-opacity="0.25"/>
<rect x="16.667" y="6.66675" width="1.66667" height="1.66667" fill="black" fill-opacity="0.25"/>
<rect x="18.333" y="6.66675" width="1.66667" height="1.66667" fill="black" fill-opacity="0.25"/>
<rect x="20" y="6.66675" width="1.66667" height="1.66667" fill="black" fill-opacity="0.25"/>
<rect x="21.667" y="6.66675" width="1.66667" height="1.66667" fill="black" fill-opacity="0.25"/>
<rect x="23.333" y="6.66675" width="1.66667" height="1.66667" fill="black" fill-opacity="0.25"/>
<rect x="25" y="6.66675" width="1.66667" height="1.66667" fill="black" fill-opacity="0.25"/>
<rect x="26.667" y="6.66675" width="1.66667" height="1.66667" fill="black" fill-opacity="0.25"/>
<rect x="28.333" y="6.66675" width="1.66667" height="1.66667" fill="black" fill-opacity="0.25"/>
<rect x="28.333" y="3.33325" width="1.66667" height="1.66667" fill="black" fill-opacity="0.25"/>
<rect x="30" y="3.33325" width="1.66667" height="1.66667" fill="black" fill-opacity="0.25"/>
<rect x="35" y="3.33325" width="1.66667" height="1.66667" fill="black" fill-opacity="0.25"/>
<rect x="36.667" y="3.33325" width="1.66667" height="1.66667" fill="black" fill-opacity="0.25"/>
<rect x="38.333" y="5" width="1.66667" height="1.66667" fill="black" fill-opacity="0.25"/>
<rect x="40" y="6.66675" width="1.66667" height="1.66667" fill="black" fill-opacity="0.25"/>
<rect x="40" y="8.33325" width="1.66667" height="1.66667" fill="black" fill-opacity="0.25"/>
<rect x="40" y="10" width="1.66667" height="1.66667" fill="black" fill-opacity="0.25"/>
<rect x="41.667" y="10" width="1.66667" height="1.66667" fill="black" fill-opacity="0.25"/>
<rect x="41.667" y="8.33325" width="1.66667" height="1.66667" fill="black" fill-opacity="0.25"/>
<rect x="51.667" y="10" width="1.66667" height="1.66667" fill="black" fill-opacity="0.25"/>
<rect x="25" y="8.33325" width="1.66667" height="1.66667" fill="black" fill-opacity="0.25"/>
<rect x="23.333" y="8.33325" width="1.66667" height="1.66667" fill="black" fill-opacity="0.25"/>
<rect x="21.667" y="8.33325" width="1.66667" height="1.66667" fill="black" fill-opacity="0.25"/>
<rect x="20" y="8.33325" width="1.66667" height="1.66667" fill="black" fill-opacity="0.25"/>
<rect x="18.333" y="8.33325" width="1.66667" height="1.66667" fill="black" fill-opacity="0.25"/>
<rect x="16.667" y="8.33325" width="1.66667" height="1.66667" fill="black" fill-opacity="0.25"/>
<rect x="20" y="10" width="1.66667" height="1.66667" fill="black" fill-opacity="0.25"/>
<rect x="21.667" y="10" width="1.66667" height="1.66667" fill="black" fill-opacity="0.25"/>
<rect x="23.333" y="10" width="1.66667" height="1.66667" fill="black" fill-opacity="0.25"/>
<rect x="25" y="10" width="1.66667" height="1.66667" fill="black" fill-opacity="0.25"/>
<rect x="25" y="11.6667" width="1.66667" height="1.66667" fill="black" fill-opacity="0.25"/>
<rect x="23.333" y="11.6667" width="1.66667" height="1.66667" fill="black" fill-opacity="0.25"/>
</svg>
