<svg width="33" height="9" viewBox="0 0 33 9" fill="none" xmlns="http://www.w3.org/2000/svg">
<rect x="25" y="8" width="1" height="1" fill="white"/>
<rect x="26" y="8" width="1" height="1" fill="white"/>
<rect x="27" y="8" width="1" height="1" fill="white"/>
<rect x="28" y="8" width="1" height="1" fill="white"/>
<rect x="29" y="8" width="1" height="1" fill="white"/>
<rect x="30" y="8" width="1" height="1" fill="white"/>
<rect x="31" y="8" width="1" height="1" fill="white"/>
<rect x="32" y="8" width="1" height="1" fill="white"/>
<rect x="7" y="3" width="1" height="1" fill="#C8E0FF"/>
<rect x="4" y="5" width="1" height="1" fill="#C8E0FF"/>
<rect x="3" y="5" width="1" height="1" fill="#C8E0FF"/>
<rect x="3" y="3" width="1" height="1" fill="#3E4751"/>
<rect x="4" y="3" width="1" height="1" fill="#3E4751"/>
<rect x="5" y="3" width="1" height="1" fill="#2C333A"/>
<rect x="6" y="3" width="1" height="1" fill="#2C333A"/>
<rect x="6" y="4" width="1" height="1" fill="#2C333A"/>
<rect x="7" y="4" width="1" height="1" fill="#2C333A"/>
<rect x="7" y="5" width="1" height="1" fill="#2C333A"/>
<rect x="6" y="5" width="1" height="1" fill="#2C333A"/>
<rect x="6" y="6" width="1" height="1" fill="#2C333A"/>
<rect x="7" y="6" width="1" height="1" fill="#2C333A"/>
<rect x="6" y="7" width="1" height="1" fill="#2C333A"/>
<rect x="7" y="7" width="1" height="1" fill="#2C333A"/>
<rect x="6" y="8" width="1" height="1" fill="#2C333A"/>
<rect x="5" y="8" width="1" height="1" fill="#2C333A"/>
<rect x="16" y="2" width="1" height="1" fill="#2C333A"/>
<rect x="21" y="3" width="1" height="1" fill="#2C333A"/>
<rect x="22" y="3" width="1" height="1" fill="#2C333A"/>
<rect x="22" y="4" width="1" height="1" fill="#2C333A"/>
<rect x="23" y="4" width="1" height="1" fill="#2C333A"/>
<rect x="22" y="5" width="1" height="1" fill="#2C333A"/>
<rect x="28" y="3" width="1" height="1" fill="#2C333A"/>
<rect x="29" y="3" width="1" height="1" fill="#2C333A"/>
<rect x="29" y="4" width="1" height="1" fill="#2C333A"/>
<rect x="30" y="4" width="1" height="1" fill="#2C333A"/>
<rect x="30" y="5" width="1" height="1" fill="#2C333A"/>
<rect x="30" y="6" width="1" height="1" fill="#2C333A"/>
<rect x="23" y="5" width="1" height="1" fill="#2C333A"/>
<rect x="22" y="6" width="1" height="1" fill="#2C333A"/>
<rect x="22" y="7" width="1" height="1" fill="#2C333A"/>
<rect x="22" y="8" width="1" height="1" fill="#2C333A"/>
<rect x="21" y="8" width="1" height="1" fill="#2C333A"/>
<rect x="3" y="4" width="1" height="1" fill="#3E4751"/>
<rect x="4" y="4" width="1" height="1" fill="#3E4751"/>
<rect x="19" y="3" width="1" height="1" fill="#3E4751"/>
<rect x="20" y="3" width="1" height="1" fill="#3E4751"/>
<rect x="18" y="4" width="1" height="1" fill="#3E4751"/>
<rect x="19" y="4" width="1" height="1" fill="#3E4751"/>
<rect x="20" y="4" width="1" height="1" fill="#3E4751"/>
<rect x="21" y="4" width="1" height="1" fill="#3E4751"/>
<rect x="21" y="5" width="1" height="1" fill="#3E4751"/>
<rect x="21" y="6" width="1" height="1" fill="#3E4751"/>
<rect x="21" y="7" width="1" height="1" fill="#3E4751"/>
<rect x="20" y="8" width="1" height="1" fill="#3E4751"/>
<rect x="20" y="7" width="1" height="1" fill="#3E4751"/>
<rect x="19" y="7" width="1" height="1" fill="#3E4751"/>
<rect x="19" y="8" width="1" height="1" fill="#3E4751"/>
<rect x="18" y="7" width="1" height="1" fill="#3E4751"/>
<rect x="18" y="6" width="1" height="1" fill="#3E4751"/>
<rect x="18" y="5" width="1" height="1" fill="#3E4751"/>
<rect x="18" y="4" width="1" height="1" fill="#3E4751"/>
<rect x="2" y="4" width="1" height="1" fill="#3E4751"/>
<rect x="2" y="5" width="1" height="1" fill="#3E4751"/>
<rect x="2" y="6" width="1" height="1" fill="#3E4751"/>
<rect x="2" y="7" width="1" height="1" fill="#3E4751"/>
<rect x="3" y="7" width="1" height="1" fill="#3E4751"/>
<rect x="3" y="8" width="1" height="1" fill="#3E4751"/>
<rect x="4" y="8" width="1" height="1" fill="#3E4751"/>
<rect x="4" y="7" width="1" height="1" fill="#3E4751"/>
<rect x="5" y="7" width="1" height="1" fill="#3E4751"/>
<rect x="5" y="6" width="1" height="1" fill="#3E4751"/>
<rect x="5" y="5" width="1" height="1" fill="#3E4751"/>
<rect x="5" y="4" width="1" height="1" fill="#3E4751"/>
<rect x="3" y="6" width="1" height="1" fill="#C8E0FF"/>
<rect x="4" y="6" width="1" height="1" fill="#C8E0FF"/>
<rect x="19" y="5" width="1" height="1" fill="#C8E0FF"/>
<rect x="20" y="5" width="1" height="1" fill="#C8E0FF"/>
<rect x="20" y="6" width="1" height="1" fill="#C8E0FF"/>
<rect x="19" y="6" width="1" height="1" fill="#C8E0FF"/>
<rect x="23" y="8" width="1" height="1" fill="#C8E0FF"/>
<rect x="24" y="8" width="1" height="1" fill="#C8E0FF"/>
<rect x="8" y="3" width="1" height="1" fill="#C8E0FF"/>
<rect x="9" y="3" width="1" height="1" fill="#C8E0FF"/>
<rect x="10" y="3" width="1" height="1" fill="#C8E0FF"/>
<rect x="11" y="3" width="1" height="1" fill="#C8E0FF"/>
<rect x="12" y="3" width="1" height="1" fill="#C8E0FF"/>
<rect x="13" y="3" width="1" height="1" fill="white"/>
<rect x="14" y="3" width="1" height="1" fill="white"/>
<rect x="15" y="3" width="1" height="1" fill="white"/>
<rect x="8" y="5" width="1" height="1" fill="white"/>
<rect x="8" y="6" width="1" height="1" fill="white"/>
<rect x="8" y="7" width="1" height="1" fill="white"/>
<rect x="9" y="5" width="1" height="1" fill="#C8E0FF"/>
<rect x="9" y="6" width="1" height="1" fill="#C8E0FF"/>
<rect x="10" y="6" width="1" height="1" fill="#C8E0FF"/>
<rect x="11" y="6" width="1" height="1" fill="#C8E0FF"/>
<rect x="9" y="7" width="1" height="1" fill="#C8E0FF"/>
<rect x="10" y="7" width="1" height="1" fill="#C8E0FF"/>
<rect x="11" y="7" width="1" height="1" fill="#C8E0FF"/>
<rect x="12" y="7" width="1" height="1" fill="#C8E0FF"/>
<rect x="13" y="7" width="1" height="1" fill="#C8E0FF"/>
<rect x="9" y="8" width="1" height="1" fill="#C8E0FF"/>
<rect x="10" y="8" width="1" height="1" fill="#C8E0FF"/>
<rect x="11" y="8" width="1" height="1" fill="#C8E0FF"/>
<rect x="12" y="8" width="1" height="1" fill="#C8E0FF"/>
<rect x="13" y="8" width="1" height="1" fill="#C8E0FF"/>
<rect x="14" y="8" width="1" height="1" fill="#C8E0FF"/>
<rect x="15" y="8" width="1" height="1" fill="#C8E0FF"/>
<rect x="8" width="1" height="1" fill="#F55C5C"/>
<rect x="9" width="1" height="1" fill="#F55C5C"/>
<rect x="10" width="1" height="1" fill="#F55C5C"/>
<rect x="11" width="1" height="1" fill="#F55C5C"/>
<rect x="10" y="1" width="1" height="1" fill="#F55C5C"/>
<rect x="9" y="1" width="1" height="1" fill="#F55C5C"/>
<rect x="8" y="1" width="1" height="1" fill="#F55C5C"/>
<rect x="7" y="1" width="1" height="1" fill="#F55C5C"/>
<rect x="6" y="1" width="1" height="1" fill="#F55C5C"/>
<rect x="5" y="2" width="1" height="1" fill="#F55C5C"/>
<rect x="2" y="2" width="1" height="1" fill="#F55C5C"/>
<rect x="2" y="3" width="1" height="1" fill="#F55C5C"/>
<rect x="1" y="3" width="1" height="1" fill="#F55C5C"/>
<rect x="1" y="2" width="1" height="1" fill="#F55C5C"/>
<rect x="1" y="1" width="1" height="1" fill="#F55C5C"/>
<rect y="1" width="1" height="1" fill="#F55C5C"/>
<rect y="2" width="1" height="1" fill="#F55C5C"/>
<rect y="3" width="1" height="1" fill="#F55C5C"/>
<rect y="4" width="1" height="1" fill="#F55C5C"/>
<rect x="1" y="4" width="1" height="1" fill="#F55C5C"/>
<rect x="6" y="2" width="1" height="1" fill="#F55C5C"/>
<rect x="7" y="2" width="1" height="1" fill="#F55C5C"/>
<rect x="8" y="2" width="1" height="1" fill="#F55C5C"/>
<rect x="9" y="2" width="1" height="1" fill="#F55C5C"/>
<rect x="10" y="2" width="1" height="1" fill="#F55C5C"/>
<rect x="12" y="1" width="1" height="1" fill="#F55C5C"/>
<rect x="13" y="1" width="1" height="1" fill="#F55C5C"/>
<rect x="13" y="2" width="1" height="1" fill="#F55C5C"/>
<rect x="12" y="2" width="1" height="1" fill="#F55C5C"/>
<rect x="8" y="4" width="1" height="1" fill="#F55C5C"/>
<rect x="9" y="4" width="1" height="1" fill="#F55C5C"/>
<rect x="10" y="4" width="1" height="1" fill="#F55C5C"/>
<rect x="11" y="4" width="1" height="1" fill="#F55C5C"/>
<rect x="12" y="4" width="1" height="1" fill="#F55C5C"/>
<rect x="13" y="4" width="1" height="1" fill="#F55C5C"/>
<rect x="14" y="4" width="1" height="1" fill="#F55C5C"/>
<rect x="15" y="4" width="1" height="1" fill="#F55C5C"/>
<rect x="16" y="4" width="1" height="1" fill="#F55C5C"/>
<rect x="17" y="4" width="1" height="1" fill="#F55C5C"/>
<rect x="17" y="2" width="1" height="1" fill="#F55C5C"/>
<rect x="18" y="2" width="1" height="1" fill="#F55C5C"/>
<rect x="21" y="2" width="1" height="1" fill="#F55C5C"/>
<rect x="22" y="2" width="1" height="1" fill="#F55C5C"/>
<rect x="23" y="3" width="1" height="1" fill="#F55C5C"/>
<rect x="24" y="4" width="1" height="1" fill="#F55C5C"/>
<rect x="24" y="5" width="1" height="1" fill="#F55C5C"/>
<rect x="24" y="6" width="1" height="1" fill="#F55C5C"/>
<rect x="25" y="6" width="1" height="1" fill="#F55C5C"/>
<rect x="25" y="5" width="1" height="1" fill="#F55C5C"/>
<rect x="31" y="6" width="1" height="1" fill="#F55C5C"/>
<rect x="15" y="5" width="1" height="1" fill="#F55C5C"/>
<rect x="14" y="5" width="1" height="1" fill="#F55C5C"/>
<rect x="13" y="5" width="1" height="1" fill="#F55C5C"/>
<rect x="12" y="5" width="1" height="1" fill="#F55C5C"/>
<rect x="11" y="5" width="1" height="1" fill="#F55C5C"/>
<rect x="10" y="5" width="1" height="1" fill="#F55C5C"/>
<rect x="12" y="6" width="1" height="1" fill="#F55C5C"/>
<rect x="13" y="6" width="1" height="1" fill="#F55C5C"/>
<rect x="14" y="6" width="1" height="1" fill="#F55C5C"/>
<rect x="15" y="6" width="1" height="1" fill="#F55C5C"/>
<rect x="15" y="7" width="1" height="1" fill="#F55C5C"/>
<rect x="14" y="7" width="1" height="1" fill="#F55C5C"/>
<rect x="2" y="1" width="1" height="1" fill="#F55C5C"/>
<rect x="3" y="1" width="1" height="1" fill="#F55C5C"/>
<rect x="4" y="1" width="1" height="1" fill="#F55C5C"/>
<rect x="5" y="1" width="1" height="1" fill="#F55C5C"/>
<rect x="4" y="2" width="1" height="1" fill="#F55C5C"/>
<rect x="3" y="2" width="1" height="1" fill="#F55C5C"/>
<rect x="11" y="2" width="1" height="1" fill="#F55C5C"/>
<rect x="11" y="1" width="1" height="1" fill="#F55C5C"/>
<rect x="12" width="1" height="1" fill="#F55C5C"/>
<rect x="13" width="1" height="1" fill="#F55C5C"/>
<rect x="14" y="1" width="1" height="1" fill="#F55C5C"/>
<rect x="14" y="2" width="1" height="1" fill="#F55C5C"/>
<rect x="19" y="2" width="1" height="1" fill="#F55C5C"/>
<rect x="18" y="3" width="1" height="1" fill="#F55C5C"/>
<rect x="17" y="3" width="1" height="1" fill="#F55C5C"/>
<rect x="16" y="3" width="1" height="1" fill="#F55C5C"/>
<rect x="17" y="5" width="1" height="1" fill="#F55C5C"/>
<rect x="16" y="5" width="1" height="1" fill="#F55C5C"/>
<rect x="16" y="6" width="1" height="1" fill="#F55C5C"/>
<rect x="17" y="6" width="1" height="1" fill="#F55C5C"/>
<rect x="17" y="7" width="1" height="1" fill="#F55C5C"/>
<rect x="16" y="7" width="1" height="1" fill="#F55C5C"/>
<rect x="23" y="2" width="1" height="1" fill="#F55C5C"/>
<rect x="24" y="3" width="1" height="1" fill="#F55C5C"/>
<rect x="25" y="3" width="1" height="1" fill="#F55C5C"/>
<rect x="26" y="3" width="1" height="1" fill="#F55C5C"/>
<rect x="27" y="3" width="1" height="1" fill="#F55C5C"/>
<rect x="25" y="4" width="1" height="1" fill="#F55C5C"/>
<rect x="26" y="4" width="1" height="1" fill="#F55C5C"/>
<rect x="27" y="4" width="1" height="1" fill="#F55C5C"/>
<rect x="28" y="4" width="1" height="1" fill="#F55C5C"/>
<rect x="26" y="5" width="1" height="1" fill="#F55C5C"/>
<rect x="27" y="5" width="1" height="1" fill="#F55C5C"/>
<rect x="28" y="5" width="1" height="1" fill="#F55C5C"/>
<rect x="29" y="5" width="1" height="1" fill="#F55C5C"/>
<rect x="26" y="6" width="1" height="1" fill="#F55C5C"/>
<rect x="27" y="6" width="1" height="1" fill="#F55C5C"/>
<rect x="28" y="6" width="1" height="1" fill="#F55C5C"/>
<rect x="29" y="6" width="1" height="1" fill="#F55C5C"/>
<rect x="23" y="6" width="1" height="1" fill="#F55C5C"/>
<rect x="23" y="7" width="1" height="1" fill="#F55C5C"/>
<rect x="24" y="7" width="1" height="1" fill="#F55C5C"/>
<rect x="25" y="7" width="1" height="1" fill="#F55C5C"/>
<rect x="26" y="7" width="1" height="1" fill="#F55C5C"/>
<rect x="27" y="7" width="1" height="1" fill="#F55C5C"/>
<rect x="28" y="7" width="1" height="1" fill="#F55C5C"/>
<rect x="29" y="7" width="1" height="1" fill="#F55C5C"/>
<rect x="30" y="7" width="1" height="1" fill="#F55C5C"/>
<rect x="31" y="7" width="1" height="1" fill="#F55C5C"/>
<rect x="32" y="7" width="1" height="1" fill="#F55C5C"/>
<rect x="32" y="6" width="1" height="1" fill="#F55C5C"/>
<rect x="8" width="1" height="1" fill="black" fill-opacity="0.25"/>
<rect x="9" width="1" height="1" fill="black" fill-opacity="0.25"/>
<rect x="10" width="1" height="1" fill="black" fill-opacity="0.25"/>
<rect x="11" width="1" height="1" fill="black" fill-opacity="0.25"/>
<rect x="10" y="1" width="1" height="1" fill="black" fill-opacity="0.25"/>
<rect x="9" y="1" width="1" height="1" fill="black" fill-opacity="0.25"/>
<rect x="8" y="1" width="1" height="1" fill="black" fill-opacity="0.25"/>
<rect x="7" y="1" width="1" height="1" fill="black" fill-opacity="0.25"/>
<rect x="6" y="1" width="1" height="1" fill="black" fill-opacity="0.25"/>
<rect x="5" y="2" width="1" height="1" fill="black" fill-opacity="0.25"/>
<rect x="2" y="2" width="1" height="1" fill="black" fill-opacity="0.25"/>
<rect x="2" y="3" width="1" height="1" fill="black" fill-opacity="0.25"/>
<rect x="1" y="3" width="1" height="1" fill="black" fill-opacity="0.25"/>
<rect x="1" y="2" width="1" height="1" fill="black" fill-opacity="0.25"/>
<rect x="1" y="1" width="1" height="1" fill="black" fill-opacity="0.25"/>
<rect y="1" width="1" height="1" fill="black" fill-opacity="0.25"/>
<rect y="2" width="1" height="1" fill="black" fill-opacity="0.25"/>
<rect y="3" width="1" height="1" fill="black" fill-opacity="0.25"/>
<rect y="4" width="1" height="1" fill="black" fill-opacity="0.25"/>
<rect x="1" y="4" width="1" height="1" fill="black" fill-opacity="0.25"/>
<rect x="6" y="2" width="1" height="1" fill="black" fill-opacity="0.25"/>
<rect x="7" y="2" width="1" height="1" fill="black" fill-opacity="0.25"/>
<rect x="8" y="2" width="1" height="1" fill="black" fill-opacity="0.25"/>
<rect x="9" y="2" width="1" height="1" fill="black" fill-opacity="0.25"/>
<rect x="10" y="2" width="1" height="1" fill="black" fill-opacity="0.25"/>
<rect x="12" y="1" width="1" height="1" fill="black" fill-opacity="0.25"/>
<rect x="13" y="1" width="1" height="1" fill="black" fill-opacity="0.25"/>
<rect x="13" y="2" width="1" height="1" fill="black" fill-opacity="0.25"/>
<rect x="12" y="2" width="1" height="1" fill="black" fill-opacity="0.25"/>
<rect x="8" y="4" width="1" height="1" fill="black" fill-opacity="0.25"/>
<rect x="9" y="4" width="1" height="1" fill="black" fill-opacity="0.25"/>
<rect x="10" y="4" width="1" height="1" fill="black" fill-opacity="0.25"/>
<rect x="11" y="4" width="1" height="1" fill="black" fill-opacity="0.25"/>
<rect x="12" y="4" width="1" height="1" fill="black" fill-opacity="0.25"/>
<rect x="13" y="4" width="1" height="1" fill="black" fill-opacity="0.25"/>
<rect x="14" y="4" width="1" height="1" fill="black" fill-opacity="0.25"/>
<rect x="15" y="4" width="1" height="1" fill="black" fill-opacity="0.25"/>
<rect x="16" y="4" width="1" height="1" fill="black" fill-opacity="0.25"/>
<rect x="17" y="4" width="1" height="1" fill="black" fill-opacity="0.25"/>
<rect x="17" y="2" width="1" height="1" fill="black" fill-opacity="0.25"/>
<rect x="18" y="2" width="1" height="1" fill="black" fill-opacity="0.25"/>
<rect x="21" y="2" width="1" height="1" fill="black" fill-opacity="0.25"/>
<rect x="22" y="2" width="1" height="1" fill="black" fill-opacity="0.25"/>
<rect x="23" y="3" width="1" height="1" fill="black" fill-opacity="0.25"/>
<rect x="24" y="4" width="1" height="1" fill="black" fill-opacity="0.25"/>
<rect x="24" y="5" width="1" height="1" fill="black" fill-opacity="0.25"/>
<rect x="24" y="6" width="1" height="1" fill="black" fill-opacity="0.25"/>
<rect x="25" y="6" width="1" height="1" fill="black" fill-opacity="0.25"/>
<rect x="25" y="5" width="1" height="1" fill="black" fill-opacity="0.25"/>
<rect x="31" y="6" width="1" height="1" fill="black" fill-opacity="0.25"/>
<rect x="15" y="5" width="1" height="1" fill="black" fill-opacity="0.25"/>
<rect x="14" y="5" width="1" height="1" fill="black" fill-opacity="0.25"/>
<rect x="13" y="5" width="1" height="1" fill="black" fill-opacity="0.25"/>
<rect x="12" y="5" width="1" height="1" fill="black" fill-opacity="0.25"/>
<rect x="11" y="5" width="1" height="1" fill="black" fill-opacity="0.25"/>
<rect x="10" y="5" width="1" height="1" fill="black" fill-opacity="0.25"/>
<rect x="12" y="6" width="1" height="1" fill="black" fill-opacity="0.25"/>
<rect x="13" y="6" width="1" height="1" fill="black" fill-opacity="0.25"/>
<rect x="14" y="6" width="1" height="1" fill="black" fill-opacity="0.25"/>
<rect x="15" y="6" width="1" height="1" fill="black" fill-opacity="0.25"/>
<rect x="15" y="7" width="1" height="1" fill="black" fill-opacity="0.25"/>
<rect x="14" y="7" width="1" height="1" fill="black" fill-opacity="0.25"/>
</svg>
